<?xml version="1.0" encoding="iso-8859-1"?>
<!-- Uploaded to: SVG Repo, www.svgrepo.com, Generator: SVG Repo Mixer Tools -->
<svg height="800px" width="800px" version="1.1" id="Layer_1" xmlns="http://www.w3.org/2000/svg" xmlns:xlink="http://www.w3.org/1999/xlink" 
	 viewBox="0 0 512 512" xml:space="preserve">
<path style="fill:#CCCCCC;" d="M10.199,256C10.199,120.248,120.248,10.199,256,10.199c67.876,0,129.326,27.512,173.808,71.993
	L82.192,429.808C37.712,385.326,10.199,323.876,10.199,256z"/>
<path style="fill:#999999;" d="M82.192,429.808L429.808,82.192c44.481,44.482,71.993,105.932,71.993,173.808
	c0,135.752-110.048,245.801-245.801,245.801C188.124,501.801,126.674,474.288,82.192,429.808z"/>
<path d="M437.02,74.98C388.668,26.628,324.381,0,256,0S123.333,26.628,74.981,74.981C26.628,123.333,0,187.619,0,256
	c0,68.38,26.628,132.666,74.98,181.02C123.332,485.372,187.619,512,256,512s132.667-26.628,181.019-74.981
	C485.372,388.667,512,324.381,512,256C512,187.62,485.372,123.334,437.02,74.98z M256,20.398
	c59.521,0,115.671,21.921,159.232,61.946L82.344,415.232c-11.624-12.651-21.709-26.369-30.186-40.918l155.977-155.977
	c3.983-3.983,3.983-10.441,0-14.425c-3.984-3.982-10.44-3.982-14.425,0L42.253,355.37C27.947,324.643,20.398,290.903,20.398,256
	C20.398,126.089,126.089,20.398,256,20.398z M256,491.602c-59.521,0-115.671-21.921-159.232-61.946L429.656,96.768
	C469.68,140.33,491.602,196.481,491.602,256C491.602,385.911,385.911,491.602,256,491.602z"/>
<path d="M233.562,188.685c2.611,0,5.22-0.996,7.212-2.987l13.769-13.769c3.983-3.983,3.983-10.441,0-14.425
	c-3.984-3.982-10.44-3.982-14.425,0l-13.769,13.769c-3.983,3.983-3.983,10.441,0,14.425
	C228.342,187.689,230.951,188.685,233.562,188.685z"/>
<path d="M340.08,284.558c-5.632,0-10.199,4.567-10.199,10.199v54.851c0,10.809-8.793,19.603-19.602,19.603
	s-19.602-8.794-19.602-19.603v-54.851c0-5.632-4.567-10.199-10.199-10.199c-5.632,0-10.199,4.567-10.199,10.199v54.851
	c0,22.057,17.944,40.001,40.001,40.001c22.056,0,40-17.944,40-40.001v-54.851C350.279,289.125,345.713,284.558,340.08,284.558z"/>
<path d="M435.1,284.558c-5.632,0-10.199,4.567-10.199,10.199v50.628l-19.602,19.602l-19.603-19.603v-50.627
	c0-5.632-4.567-10.199-10.199-10.199c-5.632,0-10.199,4.567-10.199,10.199v54.851c0,2.705,1.075,5.298,2.987,7.212l29.802,29.802
	c1.992,1.991,4.602,2.987,7.212,2.987c2.61,0,5.22-0.996,7.212-2.987l29.801-29.803c1.912-1.912,2.987-4.506,2.987-7.211v-54.851
	C445.299,289.125,440.732,284.558,435.1,284.558z"/>
</svg>